<mxfile host="65bd71144e">
    <diagram id="MoM-BOYqNaZbXBPeiV0j" name="Page-1">
        <mxGraphModel dx="476" dy="1951" grid="1" gridSize="10" guides="1" tooltips="1" connect="1" arrows="1" fold="1" page="1" pageScale="1" pageWidth="850" pageHeight="1100" math="0" shadow="0">
            <root>
                <mxCell id="0"/>
                <mxCell id="1" parent="0"/>
                <mxCell id="4" value="" style="edgeStyle=none;html=1;fontSize=14;" edge="1" parent="1" source="2" target="3">
                    <mxGeometry relative="1" as="geometry"/>
                </mxCell>
                <mxCell id="2" value="&lt;b style=&quot;font-size: 14px;&quot;&gt;预处理&lt;/b&gt;：生成只包含 macro 和 port 的电路文件，并将 port 固定" style="rounded=1;whiteSpace=wrap;html=1;fontSize=14;" vertex="1" parent="1">
                    <mxGeometry x="220" y="90" width="210" height="80" as="geometry"/>
                </mxCell>
                <mxCell id="6" value="" style="edgeStyle=none;html=1;fontSize=14;" edge="1" parent="1" source="3" target="5">
                    <mxGeometry relative="1" as="geometry"/>
                </mxCell>
                <mxCell id="10" value="" style="edgeStyle=none;html=1;exitX=1;exitY=0.5;exitDx=0;exitDy=0;fontSize=14;" edge="1" parent="1" source="3" target="9">
                    <mxGeometry relative="1" as="geometry">
                        <mxPoint x="470" y="240" as="sourcePoint"/>
                        <Array as="points">
                            <mxPoint x="585" y="260"/>
                        </Array>
                    </mxGeometry>
                </mxCell>
                <mxCell id="3" value="&lt;b style=&quot;font-size: 14px;&quot;&gt;前端&lt;/b&gt;：任意 macro placement/mixed-size placement 生成 macro placement 初始解" style="whiteSpace=wrap;html=1;rounded=1;fontSize=14;" vertex="1" parent="1">
                    <mxGeometry x="220" y="221" width="210" height="80" as="geometry"/>
                </mxCell>
                <mxCell id="8" value="" style="edgeStyle=none;html=1;fontSize=14;" edge="1" parent="1" source="5" target="7">
                    <mxGeometry relative="1" as="geometry"/>
                </mxCell>
                <mxCell id="5" value="&lt;b style=&quot;font-size: 14px;&quot;&gt;refine&lt;/b&gt;：根据mixedmask对macro placement初始解进行调优" style="whiteSpace=wrap;html=1;rounded=1;fontSize=14;" vertex="1" parent="1">
                    <mxGeometry x="220" y="352" width="210" height="80" as="geometry"/>
                </mxCell>
                <mxCell id="7" value="&lt;b style=&quot;font-size: 14px;&quot;&gt;detailed placement&lt;/b&gt;：固定macro, 使用 dreamplace完成detailed placement" style="whiteSpace=wrap;html=1;rounded=1;fontSize=14;" vertex="1" parent="1">
                    <mxGeometry x="220" y="467.5" width="210" height="80" as="geometry"/>
                </mxCell>
                <mxCell id="9" value="&lt;b style=&quot;font-size: 14px;&quot;&gt;detailed placement&lt;/b&gt;：固定 macro, 使用dreamplace 完成 detailed placement" style="whiteSpace=wrap;html=1;rounded=1;fontSize=14;" vertex="1" parent="1">
                    <mxGeometry x="480" y="467.5" width="210" height="80" as="geometry"/>
                </mxCell>
                <mxCell id="13" value="" style="edgeStyle=none;html=1;fontSize=14;" edge="1" parent="1" source="11" target="12">
                    <mxGeometry relative="1" as="geometry"/>
                </mxCell>
                <mxCell id="11" value="电路文件" style="rounded=1;whiteSpace=wrap;html=1;fontSize=14;" vertex="1" parent="1">
                    <mxGeometry x="60" y="-10" width="120" height="60" as="geometry"/>
                </mxCell>
                <mxCell id="12" value="mixed-size placement: 得到detailed placement结果" style="whiteSpace=wrap;html=1;fontSize=14;rounded=1;" vertex="1" parent="1">
                    <mxGeometry x="60" y="477.5" width="120" height="60" as="geometry"/>
                </mxCell>
            </root>
        </mxGraphModel>
    </diagram>
</mxfile>